<?xml version="1.0" encoding="UTF-8"?>
<svg id="Calque_1" data-name="Calque 1" xmlns="http://www.w3.org/2000/svg" viewBox="0 0 727.34 322.22">
  <defs>
    <style>
      .cls-1 {
        fill: #3758f9;
      }
    </style>
  </defs>
  <path class="cls-1" d="m482.38,0h-237.43c-35,0-63.38,28.38-63.38,63.38v195.46c0,35,28.38,63.38,63.38,63.38h237.43c35,0,63.38-28.38,63.38-63.38V63.38c0-35-28.38-63.38-63.38-63.38Zm-72.07,175.89c0,14.87-2.46,27.91-7.39,39.11-4.93,11.2-11.44,20.52-19.56,27.95-8.11,7.44-17.34,13.04-27.66,16.8-10.33,3.77-20.91,5.65-31.72,5.65s-21.39-1.88-31.72-5.65c-10.33-3.76-19.55-9.36-27.66-16.8-8.11-7.43-14.68-16.75-19.7-27.95-5.02-11.2-7.53-24.23-7.53-39.11V56.82h44.9v123.41c0,7.15,1.2,13.43,3.62,18.83,2.41,5.41,5.55,9.9,9.41,13.47,3.86,3.58,8.3,6.28,13.33,8.11,5.02,1.84,10.14,2.75,15.35,2.75s10.28-.87,15.21-2.61c4.93-1.74,9.37-4.44,13.33-8.11,3.96-3.67,7.1-8.21,9.41-13.62,2.32-5.4,3.48-11.68,3.48-18.83V56.82h44.9v119.06Zm76.77,83.72h-44.9V56.82h44.9v202.79Z"/>
</svg>