<?xml version="1.0" encoding="UTF-8"?>
<svg id="Calque_1" data-name="Calque 1" xmlns="http://www.w3.org/2000/svg" viewBox="0 0 727.34 252.5">
  <defs>
    <style>
      .cls-1, .cls-2 {
        fill: #fff;
      }

      .cls-2 {
        font-family: Utendo-Bold, Utendo;
        font-size: 225.95px;
        font-weight: 700;
      }
    </style>
  </defs>
  <text class="cls-2" transform="translate(0 192.17)"><tspan x="0" y="0">Easy</tspan></text>
  <path class="cls-1" d="m692.54,34.01h-130.35c-19.22,0-34.8,15.58-34.8,34.8v107.31c0,19.22,15.58,34.8,34.8,34.8h130.35c19.22,0,34.8-15.58,34.8-34.8v-107.31c0-19.22-15.58-34.8-34.8-34.8Zm-39.57,96.57c0,8.17-1.35,15.32-4.06,21.47-2.7,6.15-6.28,11.27-10.74,15.35-4.45,4.08-9.52,7.16-15.19,9.22-5.67,2.07-11.48,3.1-17.42,3.1s-11.75-1.03-17.42-3.1c-5.67-2.07-10.74-5.14-15.19-9.22-4.45-4.08-8.06-9.2-10.82-15.35-2.76-6.15-4.14-13.3-4.14-21.47v-65.37h24.65v67.75c0,3.92.66,7.37,1.99,10.34,1.33,2.97,3.05,5.44,5.17,7.4,2.12,1.96,4.56,3.45,7.32,4.45,2.76,1.01,5.57,1.51,8.43,1.51s5.65-.48,8.35-1.43c2.7-.96,5.14-2.44,7.32-4.45,2.17-2.01,3.9-4.51,5.17-7.48,1.27-2.97,1.91-6.41,1.91-10.34v-67.75h24.65v65.37Zm42.15,45.97h-24.65v-111.33h24.65v111.33Z"/>
</svg>